<svg width="282" height="64" viewBox="0 0 282 64" fill="none" xmlns="http://www.w3.org/2000/svg">
<path d="M37.3333 32L28 37.3333V26.6666L37.3333 32Z" fill="#B4C8FF" stroke="#B4C8FF" stroke-width="3" stroke-linecap="round" stroke-linejoin="round"/>
<path d="M5.3335 33.8853V30.112C5.3335 22.392 5.3335 18.5307 7.74683 16.048C10.1628 13.5627 13.9655 13.456 21.5682 13.24C25.1682 13.1387 28.8482 13.0667 32.0002 13.0667C35.1495 13.0667 38.8295 13.1387 42.4322 13.24C50.0348 13.456 53.8375 13.5627 56.2508 16.048C58.6668 18.5307 58.6668 22.3946 58.6668 30.112V33.8853C58.6668 41.608 58.6668 45.4667 56.2535 47.952C53.8375 50.4347 50.0375 50.544 42.4322 50.7573C38.8322 50.8613 35.1522 50.9333 32.0002 50.9333C28.5222 50.9229 25.0445 50.8642 21.5682 50.7573C13.9655 50.544 10.1628 50.4373 7.74683 47.952C5.3335 45.4667 5.3335 41.6053 5.3335 33.888V33.8853Z" stroke="#B4C8FF" stroke-width="3"/>
<path d="M142.064 34.0759L155.478 26.0045L144.728 35.378C144.319 35.7253 144.067 36.2274 144.033 36.7627L143.702 40.4898L141.98 34.319L141.98 34.3189L141.976 34.3063C141.946 34.2093 141.984 34.1226 142.058 34.0794L142.058 34.0794L142.064 34.0759Z" stroke="#B4C8FF"/>
<path d="M167.055 18.692L167.056 18.6866C167.44 16.8943 165.655 15.4315 163.977 16.1026L163.97 16.1053L163.964 16.108L132.272 29.311L132.272 29.311L132.265 29.3139C130.277 30.1597 130.482 33.0418 132.566 33.5947L132.567 33.595L138.943 35.278L138.956 35.2814L138.969 35.2845C138.977 35.2862 139.005 35.2955 139.042 35.3315C139.078 35.366 139.11 35.4133 139.13 35.4655L142.346 45.3751C142.868 47.0495 145.068 47.5016 146.216 46.1496L149.863 41.9343L149.863 41.9336C149.968 41.8126 150.135 41.8126 150.228 41.888L150.233 41.8928L150.239 41.8975L157.344 47.534C157.345 47.535 157.347 47.536 157.348 47.537C158.662 48.5929 160.607 47.905 160.985 46.2693L160.985 46.2693L160.987 46.2594L167.055 18.692ZM133.296 9H164.704C168.704 9 172 12.2756 172 16.2963V47.7037C172 51.7262 168.726 55 164.704 55H133.296C129.274 55 126 51.7262 126 47.7037V16.2963C126 12.2738 129.274 9 133.296 9Z" stroke="#B4C8FF" stroke-width="2"/>
<mask id="path-5-inside-1_489_4370" fill="white">
<path d="M252.978 8.006L254.436 8H261.564L263.024 8.006L264.852 8.026L265.718 8.04L266.554 8.062L267.36 8.09L268.136 8.12201L268.884 8.16401L269.604 8.21401L270.294 8.27401L270.96 8.34001C274.44 8.73203 276.826 9.57207 278.626 11.3721C280.426 13.1722 281.266 15.5563 281.658 19.0385L281.726 19.7045L281.784 20.3965L281.834 21.1165L281.874 21.8626L281.924 23.0386L281.948 23.8587L281.974 25.1467L281.992 26.9768L282 28.9369L281.998 35.5631L281.992 37.0232L281.972 38.8513L281.958 39.7173L281.936 40.5534L281.908 41.3594L281.876 42.1354L281.834 42.8834L281.784 43.6035L281.724 44.2935L281.658 44.9595C281.266 48.4397 280.426 50.8258 278.626 52.6259C276.826 54.4259 274.442 55.266 270.96 55.658L270.294 55.726L269.602 55.784L268.882 55.834L268.136 55.874L266.96 55.924L266.14 55.948L264.852 55.974L263.022 55.992L261.062 56L254.436 55.998L252.976 55.992L251.148 55.972L250.282 55.958L249.446 55.936L248.64 55.908L247.864 55.876L247.116 55.834L246.396 55.784L245.706 55.724L245.04 55.658C241.56 55.266 239.174 54.4259 237.374 52.6259C235.574 50.8258 234.734 48.4417 234.342 44.9595L234.274 44.2935L234.216 43.6015L234.166 42.8815L234.126 42.1354L234.076 40.9594L234.052 40.1393L234.026 38.8513L234.008 37.0212L234 35.0611L234.002 28.4349L234.008 26.9748L234.028 25.1467L234.042 24.2807L234.064 23.4446L234.092 22.6386L234.124 21.8626L234.166 21.1145L234.216 20.3945L234.276 19.7045L234.342 19.0385C234.734 15.5583 235.574 13.1722 237.374 11.3721C239.174 9.57207 241.558 8.73203 245.04 8.34001L245.706 8.27201L246.398 8.21401L247.118 8.16401L247.864 8.12401L249.04 8.074L249.86 8.05L251.148 8.024L252.978 8.006ZM247.58 22.5986H242.1C242.36 35.0791 248.6 42.5794 259.54 42.5794H260.16V35.4391C264.18 35.8392 267.22 38.7793 268.44 42.5794H274.12C272.56 36.8992 268.46 33.7591 265.9 32.559C268.46 31.079 272.06 27.4788 272.92 22.5986H267.76C266.64 26.5588 263.32 30.1589 260.16 30.4989V22.5986H255V36.4392C251.8 35.6391 247.76 31.759 247.58 22.5986Z"/>
</mask>
<path d="M252.978 8.006L254.436 8H261.564L263.024 8.006L264.852 8.026L265.718 8.04L266.554 8.062L267.36 8.09L268.136 8.12201L268.884 8.16401L269.604 8.21401L270.294 8.27401L270.96 8.34001C274.44 8.73203 276.826 9.57207 278.626 11.3721C280.426 13.1722 281.266 15.5563 281.658 19.0385L281.726 19.7045L281.784 20.3965L281.834 21.1165L281.874 21.8626L281.924 23.0386L281.948 23.8587L281.974 25.1467L281.992 26.9768L282 28.9369L281.998 35.5631L281.992 37.0232L281.972 38.8513L281.958 39.7173L281.936 40.5534L281.908 41.3594L281.876 42.1354L281.834 42.8834L281.784 43.6035L281.724 44.2935L281.658 44.9595C281.266 48.4397 280.426 50.8258 278.626 52.6259C276.826 54.4259 274.442 55.266 270.96 55.658L270.294 55.726L269.602 55.784L268.882 55.834L268.136 55.874L266.96 55.924L266.14 55.948L264.852 55.974L263.022 55.992L261.062 56L254.436 55.998L252.976 55.992L251.148 55.972L250.282 55.958L249.446 55.936L248.64 55.908L247.864 55.876L247.116 55.834L246.396 55.784L245.706 55.724L245.04 55.658C241.56 55.266 239.174 54.4259 237.374 52.6259C235.574 50.8258 234.734 48.4417 234.342 44.9595L234.274 44.2935L234.216 43.6015L234.166 42.8815L234.126 42.1354L234.076 40.9594L234.052 40.1393L234.026 38.8513L234.008 37.0212L234 35.0611L234.002 28.4349L234.008 26.9748L234.028 25.1467L234.042 24.2807L234.064 23.4446L234.092 22.6386L234.124 21.8626L234.166 21.1145L234.216 20.3945L234.276 19.7045L234.342 19.0385C234.734 15.5583 235.574 13.1722 237.374 11.3721C239.174 9.57207 241.558 8.73203 245.04 8.34001L245.706 8.27201L246.398 8.21401L247.118 8.16401L247.864 8.12401L249.04 8.074L249.86 8.05L251.148 8.024L252.978 8.006ZM247.58 22.5986H242.1C242.36 35.0791 248.6 42.5794 259.54 42.5794H260.16V35.4391C264.18 35.8392 267.22 38.7793 268.44 42.5794H274.12C272.56 36.8992 268.46 33.7591 265.9 32.559C268.46 31.079 272.06 27.4788 272.92 22.5986H267.76C266.64 26.5588 263.32 30.1589 260.16 30.4989V22.5986H255V36.4392C251.8 35.6391 247.76 31.759 247.58 22.5986Z" stroke="#B4C8FF" stroke-width="4" mask="url(#path-5-inside-1_489_4370)"/>
</svg>
