<svg width="300" height="75" viewBox="0 0 300 75" fill="none" xmlns="http://www.w3.org/2000/svg">
<g clip-path="url(#clip0_489_4154)">
<path fill-rule="evenodd" clip-rule="evenodd" d="M87.9731 17.7595L74.0731 27.1351C73.7149 27.3769 73.5 27.7809 73.5 28.213V45.2375C73.5 45.9552 74.0821 46.5375 74.8 46.5375C75.0591 46.5375 75.3122 46.4599 75.527 46.3151L89.4271 36.9395C89.7853 36.6977 90.0001 36.2938 90.0001 35.8616V18.8374C90.0001 18.1193 89.4181 17.5374 88.7001 17.5374C88.441 17.5374 88.1879 17.6148 87.9731 17.7595ZM47.5 13.7109V73.7001C47.5 74.4181 48.0819 75.0001 48.7999 75.0001C49.059 75.0001 49.3123 74.9226 49.527 74.7778L67.927 62.3668C68.2853 62.1251 68.5 61.7214 68.5 61.2892V1.29999C68.5 0.581994 67.9179 0 67.2 0C66.941 0 66.6877 0.0774756 66.473 0.222473L48.073 12.6334C47.7148 12.875 47.5 13.2788 47.5 13.7109ZM21.5 13.7109V73.7001C21.5 74.4181 22.0819 75.0001 22.7999 75.0001C23.059 75.0001 23.3123 74.9226 23.527 74.7778L41.927 62.3668C42.2853 62.1251 42.5 61.7214 42.5 61.2892V1.29999C42.5 0.581994 41.9179 0 41.2 0C40.941 0 40.6877 0.0774756 40.473 0.222473L22.073 12.6334C21.7148 12.875 21.5 13.2788 21.5 13.7109ZM14.4731 17.7595L0.572998 27.1351C0.21489 27.3769 0 27.7809 0 28.213V45.2375C0 45.9552 0.581933 46.5375 1.29993 46.5375C1.55902 46.5375 1.81227 46.4599 2.02698 46.3151L15.927 36.9395C16.2853 36.6977 16.5 36.2938 16.5 35.8616V18.8374C16.5 18.1193 15.9179 17.5374 15.2 17.5374C14.941 17.5374 14.6879 17.6148 14.4731 17.7595ZM139.116 53.5515L142.28 50.3871V37.5001L139.116 34.2897H119.9V27.8693H135.905V31.0796H142.28V24.7049L139.116 21.4487H116.644L113.479 24.7049V38.4631L116.644 40.7563H135.905V47.1309H119.9V43.9665H113.479V50.3871L116.644 53.5515H139.116ZM156.287 37.546V27.8693H172.292V37.546H156.287ZM156.287 53.5515V43.9665H175.503L178.667 40.7563V24.7049L175.503 21.4487H149.866V53.5515H156.287ZM192.215 37.546V27.8693H208.221V37.546H192.215ZM214.595 53.5515V47.1309L211.431 43.9665L214.595 40.7563V24.7049L211.431 21.4487H185.795V53.5515H192.215V43.9665H201.8L205.011 47.1309L208.221 50.387V53.5514L214.595 53.5515ZM228.602 53.5515V21.4487H222.181V53.5515H228.602ZM264.989 53.5515V21.4487H258.614V42.8199L242.609 21.4487H236.188V53.5515H242.609V32.1343L258.614 53.5515H264.989ZM288.856 53.5515V27.8693H300V21.4487H271.199V27.8693H282.435V53.5515H288.856Z" fill="#B4C8FF"/>
</g>
<defs>
<clipPath id="clip0_489_4154">
<rect width="300" height="75.0001" fill="white"/>
</clipPath>
</defs>
</svg>
